<svg width="49" height="49" viewBox="0 0 49 49" fill="none" xmlns="http://www.w3.org/2000/svg">
<g clip-path="url(#clip0_230_107)">
<path fill-rule="evenodd" clip-rule="evenodd" d="M24.75 0.628418C11.49 0.628418 0.75 11.3684 0.75 24.6284C0.75 35.2484 7.62 44.2184 17.16 47.3984C18.36 47.6084 18.81 46.8884 18.81 46.2584C18.81 45.6884 18.78 43.7984 18.78 41.7884C12.75 42.8984 11.19 40.3184 10.71 38.9684C10.44 38.2784 9.27 36.1484 8.25 35.5784C7.41 35.1284 6.21 34.0184 8.22 33.9884C10.11 33.9584 11.46 35.7284 11.91 36.4484C14.07 40.0784 17.52 39.0584 18.9 38.4284C19.11 36.8684 19.74 35.8184 20.43 35.2184C15.09 34.6184 9.51 32.5484 9.51 23.3684C9.51 20.7584 10.44 18.5984 11.97 16.9184C11.73 16.3184 10.89 13.8584 12.21 10.5584C12.21 10.5584 14.22 9.92842 18.81 13.0184C20.73 12.4784 22.77 12.2084 24.81 12.2084C26.85 12.2084 28.89 12.4784 30.81 13.0184C35.4 9.89842 37.41 10.5584 37.41 10.5584C38.73 13.8584 37.89 16.3184 37.65 16.9184C39.18 18.5984 40.11 20.7284 40.11 23.3684C40.11 32.5784 34.5 34.6184 29.16 35.2184C30.03 35.9684 30.78 37.4084 30.78 39.6584C30.78 42.8684 30.75 45.4484 30.75 46.2584C30.75 46.8884 31.2 47.6384 32.4 47.3984C37.1644 45.7899 41.3044 42.7278 44.2373 38.6432C47.1703 34.5585 48.7486 29.657 48.75 24.6284C48.75 11.3684 38.01 0.628418 24.75 0.628418Z" fill="white"/>
</g>
<defs>
<clipPath id="clip0_230_107">
<rect width="48" height="48" fill="white" transform="translate(0.75 0.628418)"/>
</clipPath>
</defs>
</svg>
