<svg width="49" height="49" viewBox="0 0 49 49" fill="none" xmlns="http://www.w3.org/2000/svg">
<g clip-path="url(#clip0_230_62)">
<path d="M0.75 0.628418H48.75V48.6284H0.75V0.628418Z" fill="#F7DF1E"/>
<path d="M13.3713 40.7408L17.0444 38.5178C17.7532 39.7742 18.3978 40.8374 19.9441 40.8374C21.4263 40.8374 22.361 40.2576 22.361 38.0024V22.6652H26.8717V38.0661C26.8717 42.738 24.133 44.8647 20.1374 44.8647C16.529 44.8647 14.4344 42.9958 13.3711 40.7404L13.3713 40.7408ZM29.3217 40.2574L32.9945 38.131C33.9614 39.7099 35.218 40.8698 37.441 40.8698C39.3102 40.8698 40.502 39.9353 40.502 38.6464C40.502 37.0999 39.2776 36.552 37.2155 35.6502L36.088 35.1664C32.8336 33.7814 30.6749 32.0414 30.6749 28.3682C30.6749 24.985 33.2525 22.4072 37.2802 22.4072C40.1478 22.4072 42.2099 23.4062 43.6919 26.016L40.1797 28.2717C39.4062 26.8862 38.5688 26.3385 37.28 26.3385C35.9588 26.3385 35.1211 27.1763 35.1211 28.2717C35.1211 29.6249 35.9588 30.1729 37.892 31.0107L39.0196 31.4939C42.854 33.1373 45.0126 34.8126 45.0126 38.5821C45.0126 42.6422 41.8229 44.8652 37.5376 44.8652C33.349 44.8652 30.6425 42.8676 29.3215 40.2576" fill="black"/>
</g>
<defs>
<clipPath id="clip0_230_62">
<rect width="48" height="48" fill="white" transform="translate(0.75 0.628418)"/>
</clipPath>
</defs>
</svg>
