<svg width="49" height="37" viewBox="0 0 49 37" fill="none" xmlns="http://www.w3.org/2000/svg">
<g clip-path="url(#clip0_230_71)">
<path d="M42.0526 21.3496C40.3827 21.3582 38.9313 21.7604 37.7161 22.355C37.27 21.4719 36.8242 20.6851 36.7456 20.108C36.658 19.4349 36.5532 19.0239 36.658 18.2195C36.763 17.4151 37.2352 16.2697 37.2263 16.1823C37.2177 16.0949 37.1213 15.6839 36.1597 15.6753C35.198 15.6665 34.3673 15.8589 34.2712 16.1124C34.175 16.3659 33.9914 16.943 33.869 17.5374C33.7028 18.4119 31.9456 21.533 30.9402 23.168C30.6166 22.5299 30.3368 21.9702 30.2755 21.5244C30.1882 20.8512 30.0832 20.4402 30.1882 19.6359C30.2932 18.8315 30.7653 17.6862 30.7565 17.5987C30.7477 17.5113 30.6515 17.1003 29.6898 17.0917C28.7279 17.0829 27.8973 17.2752 27.8013 17.5287C27.7051 17.7824 27.6001 18.3768 27.3991 18.9539C27.1979 19.531 24.8635 24.742 24.2515 26.0883C24.0042 26.6332 23.7448 27.1725 23.4734 27.7059C23.4734 27.7059 23.4646 27.7321 23.4383 27.7758C23.3531 27.943 23.2657 28.1092 23.1762 28.2742V28.2828C23.045 28.519 22.9051 28.7375 22.8352 28.7375C22.7827 28.7375 22.6865 28.108 22.8526 27.2512C23.2023 25.4414 24.0329 22.6261 24.0243 22.5299C24.0243 22.4774 24.1816 21.9879 23.4822 21.7342C22.8001 21.4807 22.5554 21.9003 22.4941 21.9003C22.433 21.9003 22.3891 22.049 22.3891 22.049C22.3891 22.049 23.15 18.884 20.9378 18.884C19.5565 18.884 17.6504 20.3965 16.7062 21.7604C15.6327 22.3446 14.5602 22.9304 13.4887 23.5179C12.973 23.8064 12.4396 24.095 11.9412 24.3659C11.9062 24.331 11.8713 24.2872 11.8362 24.2523C9.16078 21.3933 4.21228 19.3735 4.42209 15.5354C4.50084 14.1365 4.98159 10.4643 13.9259 6.00536C21.2875 2.37686 27.1456 3.38224 28.1598 5.6118C29.611 8.79442 25.021 14.7048 17.4143 15.5615C14.5117 15.8851 12.9903 14.7659 12.6057 14.3463C12.2035 13.909 12.1422 13.8828 11.9935 13.9704C11.7488 14.1016 11.9062 14.495 11.9935 14.7222C12.221 15.3166 13.1564 16.3659 14.7389 16.8819C16.1378 17.3364 19.5389 17.59 23.657 15.9987C28.2646 14.215 31.8668 9.25773 30.809 5.1048C29.7509 0.890548 22.7564 -0.499577 16.1378 1.85224C12.2035 3.25136 7.93678 5.45448 4.86796 8.3223C1.22203 11.732 0.644902 14.696 0.880965 15.9376C1.72921 20.344 7.80572 23.2119 10.2363 25.3364C10.1138 25.4064 10 25.4677 9.90403 25.5202C8.68865 26.1234 4.05478 28.5451 2.90071 31.1069C1.58934 34.0096 3.11071 36.0907 4.11609 36.3702C7.2374 37.2359 10.4461 35.6797 12.1685 33.109C13.8908 30.5386 13.681 27.1987 12.8855 25.6687C12.8767 25.6512 12.868 25.6336 12.8504 25.6162C13.1652 25.4326 13.4887 25.2402 13.8035 25.0567C14.3821 24.7146 14.968 24.3852 15.5609 24.0685C15.2635 24.8817 15.0449 25.8522 14.9401 27.2512C14.8088 28.895 15.482 31.0282 16.3651 31.8674C16.7587 32.2349 17.222 32.2435 17.5193 32.2435C18.551 32.2435 19.0145 31.3867 19.5303 30.3725C20.1597 29.131 20.728 27.6884 20.728 27.6884C20.728 27.6884 20.0198 31.5879 21.9434 31.5879C22.6428 31.5879 23.351 30.6785 23.6658 30.2152V30.2238C23.6658 30.2238 23.6832 30.1975 23.7183 30.1364C23.7882 30.0228 23.8319 29.9527 23.8319 29.9527V29.9354C24.1117 29.4457 24.7413 28.3353 25.6767 26.4905C26.8833 24.1124 28.0462 21.1398 28.0462 21.1398C28.0462 21.1398 28.1512 21.8654 28.5095 23.072C28.7195 23.7802 29.1563 24.5583 29.5062 25.3102C29.2265 25.7037 29.0515 25.9222 29.0515 25.9222L29.0603 25.931C28.8329 26.2282 28.5882 26.5516 28.3171 26.8666C27.364 28.003 26.2276 29.306 26.0701 29.6817C25.8863 30.1276 25.9302 30.4512 26.2801 30.7135C26.5336 30.9059 26.9881 30.932 27.4516 30.9059C28.3085 30.8446 28.9117 30.6348 29.2088 30.5037C29.6723 30.3376 30.2144 30.0839 30.7214 29.708C31.657 29.0172 32.2252 28.0293 32.1728 26.7267C32.1466 26.0097 31.9105 25.2927 31.622 24.6194C31.7095 24.4972 31.7881 24.3747 31.8757 24.2523C33.3532 22.0927 34.4986 19.7232 34.4986 19.7232C34.4986 19.7232 34.6036 20.4489 34.9619 21.6556C35.1368 22.2676 35.4953 22.9321 35.81 23.579C34.4198 24.707 33.563 26.0184 33.257 26.8752C32.7063 28.4665 33.1345 29.1834 33.9477 29.3495C34.3148 29.4282 34.8395 29.2533 35.2242 29.0872C35.7138 28.9299 36.2909 28.6589 36.8418 28.2565C37.7774 27.566 38.6778 26.6041 38.6253 25.3015C38.599 24.707 38.4417 24.121 38.2231 23.5527C39.4034 23.0634 40.9248 22.7922 42.8656 23.0195C47.0275 23.509 47.8493 26.1057 47.6918 27.1989C47.5345 28.2916 46.6602 28.8862 46.3718 29.0697C46.0831 29.2535 45.9871 29.3146 46.0133 29.4457C46.0482 29.638 46.1881 29.6294 46.433 29.5944C46.774 29.5332 48.6188 28.7112 48.6974 26.7003C48.8287 24.1299 46.3805 21.3234 42.0526 21.3496ZM9.94772 32.1736C8.56622 33.6774 6.64284 34.2457 5.81221 33.7649C4.92046 33.2489 5.27015 31.0282 6.96628 29.437C7.9979 28.4665 9.3269 27.5658 10.21 27.0151C10.411 26.8927 10.7084 26.7179 11.0669 26.4993C11.128 26.4642 11.1631 26.4468 11.1631 26.4468L11.3729 26.3155C11.9935 28.5888 11.3992 30.5911 9.94772 32.1736ZM20.0024 25.3364C19.5215 26.5081 18.5161 29.507 17.9041 29.3409C17.3795 29.201 17.0558 26.9277 17.7991 24.6807C18.175 23.5527 18.9706 22.2063 19.4341 21.6819C20.186 20.8424 21.0166 20.5625 21.2176 20.9037C21.4713 21.3496 20.2996 24.602 20.0024 25.3364ZM28.2997 29.3058C28.0985 29.4108 27.9063 29.4807 27.8187 29.4282C27.7576 29.3932 27.9063 29.2533 27.9063 29.2533C27.9063 29.2533 28.9467 28.1343 29.3575 27.6271C29.5938 27.3299 29.8733 26.9802 30.1707 26.5867V26.7003C30.1707 28.0381 28.8766 28.9387 28.2995 29.3058H28.2997ZM34.6996 27.8457C34.5509 27.7407 34.5772 27.391 35.0755 26.2981C35.2679 25.8697 35.7224 25.1529 36.5007 24.4621C36.5881 24.7419 36.6494 25.013 36.6406 25.2665C36.6318 26.954 35.4254 27.5834 34.6996 27.8457Z" fill="#CD6799"/>
</g>
<defs>
<clipPath id="clip0_230_71">
<rect width="48" height="36" fill="white" transform="translate(0.75 0.628418)"/>
</clipPath>
</defs>
</svg>
