<svg width="49" height="49" viewBox="0 0 49 49" fill="none" xmlns="http://www.w3.org/2000/svg">
<g clip-path="url(#clip0_230_68)">
<path d="M0.75 42.1482C0.75 45.5667 3.52106 48.3374 6.93919 48.3374H42.5606C45.9793 48.3374 48.75 45.5663 48.75 42.1482V6.52678C48.75 3.10809 45.9789 0.337402 42.5608 0.337402H6.93937C3.52069 0.337402 0.75 3.10846 0.75 6.52659V42.148V42.1482Z" fill="#563D7C"/>
<path d="M20.6542 21.5695V14.7721H26.6375C27.2075 14.7721 27.7569 14.8195 28.286 14.9146C28.8152 15.0095 29.2834 15.179 29.6904 15.4233C30.0973 15.6676 30.423 16.0068 30.6673 16.4408C30.9114 16.8751 31.0337 17.4314 31.0337 18.1096C31.0337 19.3308 30.6673 20.2128 29.9345 20.7554C29.202 21.2982 28.2658 21.5695 27.126 21.5695H20.6542ZM14.2637 9.80615V38.8687H28.3472C29.6497 38.8687 30.9184 38.7059 32.153 38.3802C33.3877 38.0545 34.4867 37.5526 35.45 36.8742C36.4132 36.1958 37.1799 35.3206 37.7497 34.2488C38.3197 33.1769 38.6045 31.9083 38.6045 30.443C38.6045 28.6248 38.1635 27.0713 37.2817 25.7825C36.3997 24.4934 35.0632 23.5912 33.2722 23.0755C34.5748 22.4515 35.5586 21.6509 36.2235 20.674C36.8882 19.6972 37.2206 18.4762 37.2206 17.0107C37.2206 15.6539 36.9967 14.5143 36.549 13.5916C36.1012 12.6691 35.4703 11.9296 34.6562 11.3733C33.8422 10.817 32.8654 10.4167 31.7255 10.1725C30.5859 9.92821 29.324 9.80615 27.9401 9.80615H14.2637ZM20.6542 33.9027V25.9248H27.6144C28.9984 25.9248 30.111 26.2435 30.9523 26.8814C31.7934 27.5191 32.2142 28.5841 32.2142 30.0766C32.2142 30.8365 32.0852 31.4605 31.8274 31.949C31.5695 32.4374 31.2236 32.8242 30.7894 33.109C30.3553 33.394 29.8532 33.5975 29.2834 33.7197C28.7134 33.8416 28.1165 33.9027 27.4924 33.9027H20.6542Z" fill="white"/>
</g>
<defs>
<clipPath id="clip0_230_68">
<rect width="48" height="48" fill="white" transform="translate(0.75 0.337402)"/>
</clipPath>
</defs>
</svg>
