<svg width="33" height="49" viewBox="0 0 33 49" fill="none" xmlns="http://www.w3.org/2000/svg">
<g clip-path="url(#clip0_230_85)">
<path d="M8.75 48.6284C13.166 48.6284 16.75 45.0444 16.75 40.6284V32.6284H8.75C4.334 32.6284 0.75 36.2124 0.75 40.6284C0.75 45.0444 4.334 48.6284 8.75 48.6284Z" fill="#0ACF83"/>
<path d="M0.75 24.6284C0.75 20.2124 4.334 16.6284 8.75 16.6284H16.75V32.6284H8.75C4.334 32.6284 0.75 29.0444 0.75 24.6284Z" fill="#A259FF"/>
<path d="M0.75 8.62842C0.75 4.21242 4.334 0.628418 8.75 0.628418H16.75V16.6284H8.75C4.334 16.6284 0.75 13.0444 0.75 8.62842Z" fill="#F24E1E"/>
<path d="M16.75 0.628418H24.75C29.166 0.628418 32.75 4.21242 32.75 8.62842C32.75 13.0444 29.166 16.6284 24.75 16.6284H16.75V0.628418Z" fill="#FF7262"/>
<path d="M32.75 24.6284C32.75 29.0444 29.166 32.6284 24.75 32.6284C20.334 32.6284 16.75 29.0444 16.75 24.6284C16.75 20.2124 20.334 16.6284 24.75 16.6284C29.166 16.6284 32.75 20.2124 32.75 24.6284Z" fill="#1ABCFE"/>
</g>
<defs>
<clipPath id="clip0_230_85">
<rect width="32" height="48" fill="white" transform="translate(0.75 0.628418)"/>
</clipPath>
</defs>
</svg>
