<svg width="49" height="49" viewBox="0 0 49 49" fill="none" xmlns="http://www.w3.org/2000/svg">
<g clip-path="url(#clip0_230_77)">
<path d="M24.6401 0.64209C12.4364 0.64209 13.1984 5.93432 13.1984 5.93432L13.212 11.4172H24.8577V13.0634H8.58647C8.58647 13.0634 0.777344 12.1777 0.777344 24.4911C0.777344 36.8049 7.59334 36.3682 7.59334 36.3682H11.6611V30.6541C11.6611 30.6541 11.4418 23.8381 18.3683 23.8381H29.9188C29.9188 23.8381 36.4082 23.943 36.4082 17.5663V7.02289C36.4082 7.02289 37.3938 0.64209 24.6401 0.64209ZM18.2187 4.32924C18.4939 4.32899 18.7664 4.38302 19.0207 4.48821C19.275 4.59341 19.5061 4.74772 19.7006 4.94232C19.8952 5.13691 20.0495 5.36797 20.1547 5.62226C20.2599 5.87656 20.314 6.1491 20.3137 6.4243C20.314 6.6995 20.2599 6.97204 20.1547 7.22634C20.0495 7.48063 19.8952 7.71169 19.7006 7.90628C19.5061 8.10088 19.275 8.25519 19.0207 8.36039C18.7664 8.46558 18.4939 8.51961 18.2187 8.51936C17.9435 8.51961 17.6709 8.46558 17.4166 8.36039C17.1623 8.25519 16.9313 8.10088 16.7367 7.90628C16.5421 7.71169 16.3878 7.48063 16.2826 7.22634C16.1774 6.97204 16.1234 6.6995 16.1236 6.4243C16.1234 6.1491 16.1774 5.87656 16.2826 5.62226C16.3878 5.36797 16.5421 5.13691 16.7367 4.94232C16.9313 4.74772 17.1623 4.59341 17.4166 4.48821C17.6709 4.38302 17.9435 4.32899 18.2187 4.32924Z" fill="url(#paint0_linear_230_77)"/>
<path d="M24.9861 48.4639C37.1898 48.4639 36.4278 43.1716 36.4278 43.1716L36.4143 37.6889H24.7683V36.0428H41.0396C41.0396 36.0428 48.8487 36.9284 48.8487 24.6146C48.8487 12.301 42.0327 12.7378 42.0327 12.7378H37.965V18.4516C37.965 18.4516 38.1842 25.2676 31.2578 25.2676H19.7073C19.7073 25.2676 13.2178 25.1628 13.2178 31.5396V42.0833C13.2178 42.0833 12.2324 48.4639 24.9859 48.4639H24.9861ZM31.4076 44.7771C31.1324 44.7773 30.8599 44.7233 30.6056 44.6181C30.3513 44.5129 30.1202 44.3586 29.9256 44.164C29.731 43.9694 29.5767 43.7384 29.4715 43.4841C29.3663 43.2298 29.3123 42.9572 29.3125 42.682C29.3123 42.4068 29.3663 42.1343 29.4715 41.8799C29.5766 41.6256 29.7309 41.3945 29.9255 41.1999C30.1201 41.0053 30.3512 40.851 30.6055 40.7458C30.8598 40.6406 31.1324 40.5865 31.4076 40.5868C31.6828 40.5865 31.9553 40.6406 32.2096 40.7458C32.4639 40.851 32.695 41.0053 32.8896 41.1999C33.0842 41.3945 33.2385 41.6255 33.3437 41.8798C33.4489 42.1341 33.5029 42.4066 33.5027 42.6818C33.5029 42.957 33.4489 43.2296 33.3437 43.4839C33.2385 43.7382 33.0842 43.9692 32.8896 44.1638C32.695 44.3584 32.4639 44.5127 32.2096 44.6179C31.9553 44.7231 31.6828 44.7771 31.4076 44.7769V44.7771Z" fill="url(#paint1_linear_230_77)"/>
</g>
<defs>
<linearGradient id="paint0_linear_230_77" x1="5.39704" y1="4.94339" x2="29.22" y2="28.5287" gradientUnits="userSpaceOnUse">
<stop stop-color="#387EB8"/>
<stop offset="1" stop-color="#366994"/>
</linearGradient>
<linearGradient id="paint1_linear_230_77" x1="20.019" y1="20.0883" x2="45.6022" y2="44.2729" gradientUnits="userSpaceOnUse">
<stop stop-color="#FFE052"/>
<stop offset="1" stop-color="#FFC331"/>
</linearGradient>
<clipPath id="clip0_230_77">
<rect width="48.1882" height="48" fill="white" transform="translate(0.75 0.628418)"/>
</clipPath>
</defs>
</svg>
