<svg width="49" height="49" viewBox="0 0 49 49" fill="none" xmlns="http://www.w3.org/2000/svg">
<g clip-path="url(#clip0_230_112)">
<path d="M0.75 24.6284V48.6284H48.75V0.628418H0.75V24.6284Z" fill="#007ACC"/>
<path d="M11.3648 24.7878L11.3496 26.7534H17.5971V44.5059H22.0161V26.7534H28.2638V24.8259C28.2638 23.759 28.2409 22.8677 28.2105 22.8448C28.1877 22.8144 24.3855 22.799 19.7762 22.8067L11.3875 22.8296L11.3648 24.7877V24.7878ZM39.4814 22.7737C40.7003 23.0784 41.6299 23.6193 42.4832 24.5032C42.9252 24.9757 43.5803 25.8365 43.6337 26.0422C43.6487 26.1032 41.5613 27.5051 40.2966 28.29C40.2509 28.3203 40.0679 28.1223 39.8622 27.8175C39.2451 26.9184 38.5975 26.5299 37.6069 26.4613C36.1519 26.3623 35.2146 27.1241 35.2223 28.3965C35.2223 28.77 35.2755 28.9908 35.428 29.2955C35.748 29.9585 36.3422 30.3547 38.209 31.1623C41.6451 32.6403 43.1155 33.6155 44.0299 35.0023C45.0509 36.549 45.2794 39.0176 44.586 40.8538C43.8242 42.8499 41.9348 44.2061 39.2755 44.6555C38.4527 44.8003 36.5024 44.7774 35.6185 44.6175C33.691 44.2747 31.8623 43.3222 30.7347 42.0727C30.2927 41.5852 29.4317 40.3127 29.4852 40.2213C29.508 40.1908 29.706 40.0689 29.9269 39.9393C30.1403 39.8175 30.948 39.3527 31.7099 38.9109L33.0889 38.1108L33.3784 38.5376C33.7823 39.1545 34.666 40.0003 35.1994 40.2823C36.7307 41.0898 38.8337 40.9757 39.8699 40.046C40.3118 39.6423 40.4946 39.2233 40.4946 38.606C40.4946 38.0499 40.426 37.8062 40.1365 37.3871C39.7634 36.8537 39.0014 36.4042 36.8374 35.4671C34.3613 34.4002 33.2946 33.7376 32.3194 32.6861C31.7556 32.0767 31.2222 31.1013 31.0013 30.2861C30.8185 29.6079 30.7725 27.909 30.9175 27.2233C31.428 24.8308 33.2337 23.1622 35.8394 22.667C36.685 22.5071 38.6507 22.568 39.4814 22.7737Z" fill="white"/>
</g>
<defs>
<clipPath id="clip0_230_112">
<rect width="48" height="48" fill="white" transform="translate(0.75 0.628418)"/>
</clipPath>
</defs>
</svg>
