<svg width="14" height="14" viewBox="0 0 14 14" fill="none" xmlns="http://www.w3.org/2000/svg">
<path d="M12.7489 5.36231L8.83903 4.79408L7.0912 1.25068C7.04346 1.15366 6.96493 1.07512 6.86791 1.02739C6.6246 0.907271 6.32893 1.00737 6.20728 1.25068L4.45945 4.79408L0.549541 5.36231C0.441745 5.37771 0.343189 5.42853 0.267732 5.50553C0.176509 5.59929 0.126241 5.72543 0.127973 5.85624C0.129706 5.98704 0.183297 6.11181 0.276972 6.20312L3.10584 8.96115L2.43751 12.8557C2.42183 12.9463 2.43186 13.0394 2.46644 13.1246C2.50103 13.2098 2.55879 13.2836 2.63318 13.3376C2.70757 13.3916 2.79561 13.4238 2.88732 13.4303C2.97903 13.4368 3.07073 13.4175 3.15204 13.3746L6.64924 11.5359L10.1464 13.3746C10.2419 13.4254 10.3528 13.4424 10.459 13.4239C10.727 13.3777 10.9072 13.1236 10.861 12.8557L10.1926 8.96115L13.0215 6.20312C13.0985 6.12766 13.1493 6.02911 13.1647 5.92131C13.2063 5.65182 13.0184 5.40235 12.7489 5.36231Z" fill="#FFB742"/>
</svg>
