<svg width="14" height="14" viewBox="0 0 14 14" fill="none" xmlns="http://www.w3.org/2000/svg">
<path d="M12.621 5.36231L8.7111 4.79408L6.96327 1.25068C6.91553 1.15366 6.837 1.07512 6.73998 1.02739C6.49667 0.907271 6.201 1.00737 6.07935 1.25068L4.33152 4.79408L0.421611 5.36231C0.313816 5.37771 0.215259 5.42853 0.139802 5.50553C0.048579 5.59929 -0.00168917 5.72543 4.3343e-05 5.85624C0.00177586 5.98704 0.0553674 6.11181 0.149042 6.20312L2.97791 8.96115L2.30958 12.8557C2.2939 12.9463 2.30393 13.0394 2.33851 13.1246C2.3731 13.2098 2.43086 13.2836 2.50525 13.3376C2.57964 13.3916 2.66768 13.4238 2.75939 13.4303C2.8511 13.4368 2.9428 13.4175 3.02411 13.3746L6.52131 11.5359L10.0185 13.3746C10.114 13.4254 10.2249 13.4424 10.3311 13.4239C10.5991 13.3777 10.7792 13.1236 10.733 12.8557L10.0647 8.96115L12.8936 6.20312C12.9706 6.12766 13.0214 6.02911 13.0368 5.92131C13.0784 5.65182 12.8905 5.40235 12.621 5.36231Z" fill="#FFB742"/>
</svg>
