<svg width="14" height="14" viewBox="0 0 14 14" fill="none" xmlns="http://www.w3.org/2000/svg">
<path d="M12.706 5.36231L8.79606 4.79408L7.04823 1.25068C7.00049 1.15366 6.92196 1.07512 6.82494 1.02739C6.58163 0.907271 6.28596 1.00737 6.16431 1.25068L4.41648 4.79408L0.506572 5.36231C0.398776 5.37771 0.30022 5.42853 0.224763 5.50553C0.13354 5.59929 0.0832718 5.72543 0.0850043 5.85624C0.0867368 5.98704 0.140328 6.11181 0.234003 6.20312L3.06287 8.96115L2.39454 12.8557C2.37886 12.9463 2.38889 13.0394 2.42348 13.1246C2.45806 13.2098 2.51582 13.2836 2.59021 13.3376C2.66461 13.3916 2.75265 13.4238 2.84435 13.4303C2.93606 13.4368 3.02777 13.4175 3.10907 13.3746L6.60627 11.5359L10.1035 13.3746C10.1989 13.4254 10.3098 13.4424 10.4161 13.4239C10.684 13.3777 10.8642 13.1236 10.818 12.8557L10.1497 8.96115L12.9785 6.20312C13.0555 6.12766 13.1064 6.02911 13.1218 5.92131C13.1633 5.65182 12.9755 5.40235 12.706 5.36231Z" fill="#FFB742"/>
</svg>
