<svg width="14" height="14" viewBox="0 0 14 14" fill="none" xmlns="http://www.w3.org/2000/svg">
<path d="M12.664 5.36231L8.75407 4.79408L7.00624 1.25068C6.9585 1.15366 6.87997 1.07512 6.78295 1.02739C6.53964 0.907271 6.24397 1.00737 6.12231 1.25068L4.37448 4.79408L0.46458 5.36231C0.356784 5.37771 0.258228 5.42853 0.182771 5.50553C0.0915478 5.59929 0.0412796 5.72543 0.0430121 5.85624C0.0447446 5.98704 0.0983361 6.11181 0.192011 6.20312L3.02088 8.96115L2.35255 12.8557C2.33687 12.9463 2.3469 13.0394 2.38148 13.1246C2.41607 13.2098 2.47383 13.2836 2.54822 13.3376C2.62261 13.3916 2.71065 13.4238 2.80236 13.4303C2.89407 13.4368 2.98577 13.4175 3.06708 13.3746L6.56428 11.5359L10.0615 13.3746C10.157 13.4254 10.2678 13.4424 10.3741 13.4239C10.642 13.3777 10.8222 13.1236 10.776 12.8557L10.1077 8.96115L12.9365 6.20312C13.0135 6.12766 13.0644 6.02911 13.0798 5.92131C13.1213 5.65182 12.9335 5.40235 12.664 5.36231Z" fill="#FFB742"/>
</svg>
