<svg width="14" height="14" viewBox="0 0 14 14" fill="none" xmlns="http://www.w3.org/2000/svg">
<path d="M12.7909 5.36231L8.88102 4.79408L7.13319 1.25068C7.08546 1.15366 7.00692 1.07512 6.9099 1.02739C6.66659 0.907271 6.37092 1.00737 6.24927 1.25068L4.50144 4.79408L0.591533 5.36231C0.483737 5.37771 0.385181 5.42853 0.309724 5.50553C0.218501 5.59929 0.168233 5.72543 0.169965 5.85624C0.171698 5.98704 0.225289 6.11181 0.318964 6.20312L3.14783 8.96115L2.4795 12.8557C2.46383 12.9463 2.47385 13.0394 2.50844 13.1246C2.54302 13.2098 2.60079 13.2836 2.67518 13.3376C2.74957 13.3916 2.83761 13.4238 2.92931 13.4303C3.02102 13.4368 3.11273 13.4175 3.19403 13.3746L6.69123 11.5359L10.1884 13.3746C10.2839 13.4254 10.3948 13.4424 10.501 13.4239C10.769 13.3777 10.9492 13.1236 10.903 12.8557L10.2346 8.96115L13.0635 6.20312C13.1405 6.12766 13.1913 6.02911 13.2067 5.92131C13.2483 5.65182 13.0604 5.40235 12.7909 5.36231Z" fill="#FFB742"/>
</svg>
