<svg width="53" height="51" viewBox="0 0 53 51" fill="none" xmlns="http://www.w3.org/2000/svg">
<path d="M0.570312 25.4315C0.570312 11.4734 11.8855 0.158203 25.8436 0.158203H27.047C41.0051 0.158203 52.3203 11.4734 52.3203 25.4315C52.3203 39.3895 41.0051 50.7047 27.0471 50.7047H25.8436C11.8855 50.7047 0.570312 39.3895 0.570312 25.4315Z" fill="#FFB742"/>
<path d="M36.2037 16.258L18.6998 25.856C18.0162 26.2293 18.1031 27.1339 18.7828 27.4067L22.7972 29.0075L33.6471 19.9192C33.8548 19.7433 34.1493 20.0125 33.9718 20.2171L24.8743 30.752V33.6415C24.8743 34.4886 25.9506 34.8224 26.4793 34.2086L28.8774 31.434L33.5829 33.3076C34.1191 33.523 34.7309 33.2035 34.8291 32.6544L37.5482 17.1482C37.6766 16.4231 36.8571 15.8991 36.2037 16.258Z" fill="#212529"/>
</svg>
