<svg width="49" height="49" viewBox="0 0 49 49" fill="none" xmlns="http://www.w3.org/2000/svg">
<path d="M9.60292 41.4299L6.23242 3.62842H43.2674L39.8924 41.4239L24.7274 45.6284L9.60292 41.4299Z" fill="#E44F26"/>
<path d="M24.75 42.4152L37.005 39.0177L39.888 6.71973H24.75V42.4152Z" fill="#F1662A"/>
<path d="M24.75 20.739H18.615L18.192 15.9915H24.75V11.355H13.125L13.236 12.6L14.3745 25.3755H24.75V20.739ZM24.75 32.7795L24.729 32.7855L19.566 31.392L19.236 27.6945H14.5815L15.231 34.9725L24.729 37.6095L24.75 37.6035V32.7795Z" fill="#EBEBEB"/>
<path d="M24.7334 20.739V25.3755H30.4424L29.9054 31.389L24.7334 32.784V37.608L34.2389 34.9725L34.3079 34.1895L35.3969 21.984L35.5109 20.739H24.7334ZM24.7334 11.355V15.9915H35.9324L36.0254 14.9505L36.2369 12.6L36.3479 11.355H24.7334Z" fill="white"/>
</svg>
