<svg width="49" height="49" viewBox="0 0 49 49" fill="none" xmlns="http://www.w3.org/2000/svg">
<path d="M9.60337 41.4299L6.23438 3.62842H43.2664L39.8929 41.4239L24.7279 45.6284L9.60337 41.4299Z" fill="#1572B6"/>
<path d="M24.75 42.4152L37.005 39.0177L39.888 6.71973H24.75V42.4152Z" fill="#33A9DC"/>
<path d="M24.75 20.4148H30.885L31.308 15.6673H24.75V11.0308H36.375L36.264 12.2743L35.1255 25.0513H24.75V20.4148Z" fill="white"/>
<path d="M24.7789 32.4556L24.7579 32.4616L19.5949 31.0666L19.2649 27.3691H14.6104L15.2599 34.6486L24.7564 37.2856L24.7789 37.2796V32.4556Z" fill="#EBEBEB"/>
<path d="M30.4902 24.855L29.9322 31.0635L24.7617 32.4585V37.2825L34.2657 34.6485L34.3362 33.8655L35.1417 24.855H30.4902Z" fill="white"/>
<path d="M24.7668 11.0308V15.6673H13.5678L13.4748 14.6248L13.2633 12.2743L13.1523 11.0308H24.7668ZM24.7503 20.4148V25.0513H19.6518L19.5588 24.0088L19.3488 21.6583L19.2378 20.4148H24.7503Z" fill="#EBEBEB"/>
</svg>
